<svg xmlns="http://www.w3.org/2000/svg" width="122" height="30" viewBox="3367.9 3.96 61 15.33" enable-background="new 3367.9 3.96 61 15.33"><g fill="#fff"><path d="M3379.73 4.15h2.03v14.97h-1.84l-10.01-11.53v11.53h-2.01V4.15h1.74l10.09 11.62V4.15M3385.62 4.15h8.49v1.91h-6.34v4.56h6.13v1.92h-6.13v4.65h6.54v1.9h-8.69V4.15M3416.97 4.15h2.14l-6.05 15.03h-.47l-4.89-12.17-4.95 12.17h-.46l-6.03-15.03h2.16l4.12 10.32 4.16-10.32h2.02l4.17 10.32 4.08-10.32M3424.92 12.85l-1.63-.99c-1.02-.62-1.75-1.24-2.18-1.84-.43-.6-.65-1.3-.65-2.08 0-1.18.41-2.14 1.23-2.87.82-.74 1.88-1.1 3.19-1.1 1.25 0 2.4.35 3.44 1.05v2.43c-1.08-1.04-2.24-1.56-3.48-1.56-.7 0-1.27.16-1.73.49-.45.32-.67.74-.67 1.24 0 .45.17.87.5 1.26.33.39.86.8 1.6 1.23l1.64.97c1.82 1.09 2.74 2.48 2.74 4.16 0 1.2-.4 2.17-1.21 2.92-.8.75-1.85 1.12-3.13 1.12-1.48 0-2.82-.45-4.04-1.36V15.2c1.16 1.47 2.5 2.2 4.02 2.2.67 0 1.23-.19 1.68-.56.45-.37.67-.84.67-1.4-.02-.91-.68-1.78-1.99-2.59"/></g></svg>